<svg xmlns="http://www.w3.org/2000/svg">

	<symbol id="facebook" viewBox="0 0 6 14">
		<path d="M4 4.55002V3.325C4 2.7125 4.07692 2.36252 4.92308 2.36252H6V1.06812e-05H4.23077C2.07692 1.06812e-05 1.38462 1.13749 1.38462 3.14999V4.6375H0V7.00001H1.30769V14H4V7.00001H5.76923L6 4.55002H4Z"/>
	</symbol>

	<symbol id="metro" viewBox="0 0 25 20">
		<path d="M7.53295 4.20808C7.15819 2.93848 6.14095 3.07763 5.44544 3.66895C3.73216 5.25154 1.50132 8.57332 2.92907 13.3565C4.12479 17.4086 9.10021 20 9.10021 20H3.3002C3.3002 20 0.305404 16.6434 0.0376881 12.6956C-0.301388 7.70435 1.6976 4.55646 4.01768 2.50435C6.19497 0.573894 8.2652 0 8.2652 0L12.5 13.875L16.7348 0C16.7348 0 18.805 0.573895 20.9823 2.50435C23.3024 4.55646 25.3014 7.70435 24.9623 12.6956C24.6946 16.6434 21.6998 20 21.6998 20H15.8998C15.8998 20 20.8748 17.4086 22.0709 13.3565C23.4987 8.57386 21.2678 5.25209 19.5546 3.66895C18.8585 3.07763 17.8413 2.93848 17.4671 4.20808C16.1821 8.26025 12.5005 19.8706 12.5005 19.8706C12.5005 19.8706 8.81897 8.25637 7.534 4.20808H7.53295Z"/>
	</symbol>

	<symbol id="phone" viewBox="0 0 20 20">
		<path d="M10 1.17188C12.0369 1.1727 14.0109 1.87768 15.5875 3.16738C17.1642 4.45707 18.2464 6.25217 18.651 8.24851C19.0555 10.2449 18.7575 12.3197 17.8074 14.1214C16.8572 15.9232 15.3134 17.341 13.4375 18.1348C11.28 19.0464 8.84875 19.0637 6.67853 18.1828C4.50831 17.3019 2.77692 15.595 1.86523 13.4375C0.953553 11.28 0.936264 8.84875 1.81717 6.67853C2.69808 4.50831 4.40503 2.77692 6.5625 1.86523C7.64997 1.40504 8.81917 1.16921 10 1.17188ZM10 0C4.47734 0 0 4.47734 0 10C0 15.5227 4.47734 20 10 20C15.5227 20 20 15.5227 20 10C20 4.47734 15.5227 0 10 0Z"/>
		<path d="M12.9176 15.3855C12.3367 15.3465 11.518 15.1461 10.7188 14.8602C7.90078 13.8516 5.15117 11.1645 4.5668 7.40586C4.46289 6.73672 4.57227 6.12539 5.0793 5.62773C5.24922 5.46133 5.40039 5.27617 5.56641 5.10586C6.19141 4.4625 7.10469 4.44609 7.75195 5.06406C7.95703 5.25938 8.16563 5.45195 8.36563 5.65352C8.63949 5.92359 8.79806 6.28928 8.80804 6.67378C8.81802 7.05829 8.67863 7.43171 8.41914 7.71563C8.26289 7.88906 8.09883 8.05391 7.93398 8.21836C7.75391 8.39805 7.53008 8.50117 7.28984 8.57617C6.99336 8.66914 6.93828 8.79336 7.07305 9.07656C7.92461 10.8602 9.25755 12.1444 11.0719 12.9293C11.3145 13.034 11.4266 12.9867 11.5242 12.7461C11.7383 12.2184 12.1309 11.8336 12.582 11.5227C13.0926 11.1711 13.8238 11.2492 14.3074 11.6648C14.5725 11.8927 14.8259 12.1339 15.0664 12.3875C15.3252 12.6644 15.469 13.0294 15.4687 13.4084C15.4683 13.7874 15.3238 14.1521 15.0645 14.4285C14.9891 14.5105 14.9113 14.5906 14.8391 14.675C14.4039 15.1809 13.852 15.4176 12.9176 15.3855Z"/>
	</symbol>

	<symbol id="user" viewBox="0 0 20 20">
		<path d="M10 1.17188C12.0369 1.1727 14.0109 1.87768 15.5875 3.16738C17.1642 4.45707 18.2464 6.25217 18.651 8.24851C19.0555 10.2449 18.7575 12.3197 17.8074 14.1214C16.8572 15.9232 15.3134 17.341 13.4375 18.1348C11.28 19.0464 8.84875 19.0637 6.67853 18.1828C4.50831 17.3019 2.77692 15.595 1.86523 13.4375C0.953553 11.28 0.936264 8.84875 1.81717 6.67853C2.69808 4.50831 4.40503 2.77692 6.5625 1.86523C7.64997 1.40504 8.81917 1.16921 10 1.17188ZM10 0C4.47734 0 0 4.47734 0 10C0 15.5227 4.47734 20 10 20C15.5227 20 20 15.5227 20 10C20 4.47734 15.5227 0 10 0Z"/>
		<path d="M10 9.54922C11.3857 9.54922 12.509 8.42591 12.509 7.04023C12.509 5.65456 11.3857 4.53125 10 4.53125C8.61433 4.53125 7.49102 5.65456 7.49102 7.04023C7.49102 8.42591 8.61433 9.54922 10 9.54922Z"/>
		<path d="M7.54609 10.5523H12.4539C12.7404 10.5523 13.0241 10.6088 13.2888 10.7185C13.5535 10.8281 13.794 10.9889 13.9966 11.1915C14.1991 11.3941 14.3598 11.6347 14.4693 11.8994C14.5789 12.1641 14.6353 12.4479 14.6352 12.7344V14.4141C14.6352 14.6938 14.524 14.962 14.3262 15.1598C14.1285 15.3576 13.8602 15.4688 13.5805 15.4688H6.42109C6.14137 15.4688 5.87311 15.3576 5.67532 15.1598C5.47752 14.962 5.36641 14.6938 5.36641 14.4141V12.7344C5.3662 12.156 5.5957 11.6012 6.00445 11.192C6.4132 10.7829 6.96773 10.5528 7.54609 10.5523Z"/>
	</symbol>

	<symbol id="settings" viewBox="0 0 20 20">
		<path d="M10 1.17188C12.0369 1.1727 14.0109 1.87768 15.5875 3.16738C17.1642 4.45707 18.2464 6.25217 18.651 8.24851C19.0555 10.2449 18.7575 12.3197 17.8074 14.1214C16.8572 15.9232 15.3134 17.341 13.4375 18.1348C11.28 19.0464 8.84875 19.0637 6.67853 18.1828C4.50831 17.3019 2.77692 15.595 1.86523 13.4375C0.953553 11.28 0.936264 8.84875 1.81717 6.67853C2.69808 4.50831 4.40503 2.77692 6.5625 1.86523C7.64997 1.40504 8.81917 1.16921 10 1.17188ZM10 0C4.47734 0 0 4.47734 0 10C0 15.5227 4.47734 20 10 20C15.5227 20 20 15.5227 20 10C20 4.47734 15.5227 0 10 0Z"/>
		<path d="M14.7555 8.71602H14.2086C14.126 8.44487 14.0172 8.18243 13.8836 7.93242L14.2707 7.54531C14.337 7.47913 14.3896 7.40053 14.4255 7.31399C14.4614 7.22746 14.4799 7.1347 14.4799 7.04102C14.4799 6.94733 14.4614 6.85457 14.4255 6.76804C14.3896 6.6815 14.337 6.6029 14.2707 6.53672L13.4637 5.72969C13.3975 5.66338 13.3189 5.61078 13.2324 5.57488C13.1458 5.53899 13.0531 5.52052 12.9594 5.52052C12.8657 5.52052 12.7729 5.53899 12.6864 5.57488C12.5999 5.61078 12.5213 5.66338 12.4551 5.72969L12.068 6.1168C11.818 5.98323 11.5555 5.87438 11.2844 5.7918V5.24492C11.2844 5.05564 11.2092 4.87412 11.0753 4.74028C10.9415 4.60644 10.76 4.53125 10.5707 4.53125H9.4293C9.24015 4.53135 9.05879 4.60654 8.92505 4.74028C8.7913 4.87402 8.71612 5.05539 8.71602 5.24453V5.79141C8.44487 5.87399 8.18243 5.98284 7.93242 6.11641L7.54531 5.7293C7.47913 5.66299 7.40053 5.61039 7.31399 5.57449C7.22746 5.5386 7.1347 5.52013 7.04102 5.52013C6.94733 5.52013 6.85457 5.5386 6.76804 5.57449C6.6815 5.61039 6.6029 5.66299 6.53672 5.7293L5.72969 6.53633C5.66338 6.60251 5.61078 6.68111 5.57488 6.76765C5.53899 6.85418 5.52052 6.94694 5.52052 7.04063C5.52052 7.13431 5.53899 7.22707 5.57488 7.3136C5.61078 7.40014 5.66338 7.47874 5.72969 7.54492L6.1168 7.93203C5.98323 8.18203 5.87438 8.44448 5.7918 8.71562H5.24492C5.1512 8.71562 5.0584 8.73409 4.97181 8.76995C4.88522 8.80582 4.80655 8.85838 4.74028 8.92465C4.67401 8.99092 4.62144 9.0696 4.58558 9.15619C4.54971 9.24277 4.53125 9.33558 4.53125 9.4293V10.5707C4.53135 10.7598 4.60654 10.9412 4.74028 11.075C4.87402 11.2087 5.05539 11.2839 5.24453 11.284H5.79141C5.87399 11.5551 5.98284 11.8176 6.11641 12.0676L5.7293 12.4547C5.66298 12.5209 5.61036 12.5995 5.57447 12.6861C5.53857 12.7727 5.52009 12.8655 5.52009 12.9592C5.52009 13.0529 5.53857 13.1457 5.57447 13.2323C5.61036 13.3188 5.66298 13.3975 5.7293 13.4637L6.53633 14.2703C6.60251 14.3366 6.68111 14.3892 6.76765 14.4251C6.85418 14.461 6.94694 14.4795 7.04063 14.4795C7.13431 14.4795 7.22707 14.461 7.3136 14.4251C7.40014 14.3892 7.47874 14.3366 7.54492 14.2703L7.93203 13.8832C8.18203 14.0168 8.44448 14.1256 8.71562 14.2082V14.7551C8.71562 14.9444 8.79082 15.1259 8.92465 15.2597C9.05849 15.3936 9.24002 15.4688 9.4293 15.4688H10.5707C10.7598 15.4686 10.9412 15.3935 11.075 15.2597C11.2087 15.126 11.2839 14.9446 11.284 14.7555V14.2086C11.5551 14.126 11.8176 14.0172 12.0676 13.8836L12.4547 14.2707C12.5209 14.337 12.5995 14.3896 12.686 14.4255C12.7725 14.4614 12.8653 14.4799 12.959 14.4799C13.0527 14.4799 13.1454 14.4614 13.232 14.4255C13.3185 14.3896 13.3971 14.337 13.4633 14.2707L14.2703 13.4641C14.3366 13.3978 14.3892 13.3192 14.4251 13.2326C14.461 13.1461 14.4795 13.0533 14.4795 12.9596C14.4795 12.8659 14.461 12.7731 14.4251 12.6865C14.3892 12.5999 14.3366 12.5213 14.2703 12.4551L13.8832 12.068C14.0168 11.818 14.1256 11.5555 14.2082 11.2844H14.7551C14.9444 11.2844 15.1259 11.2092 15.2597 11.0753C15.3936 10.9415 15.4688 10.76 15.4688 10.5707V9.4293C15.4686 9.24015 15.3935 9.05879 15.2597 8.92505C15.126 8.7913 14.9446 8.71612 14.7555 8.71602ZM10 11.8785C9.62846 11.8785 9.26527 11.7683 8.95635 11.5619C8.64743 11.3555 8.40666 11.0621 8.26448 10.7189C8.1223 10.3756 8.0851 9.99792 8.15758 9.63352C8.23006 9.26912 8.40897 8.9344 8.67169 8.67169C8.9344 8.40897 9.26912 8.23006 9.63352 8.15758C9.99792 8.0851 10.3756 8.1223 10.7189 8.26448C11.0621 8.40666 11.3555 8.64743 11.5619 8.95635C11.7683 9.26527 11.8785 9.62846 11.8785 10C11.878 10.4981 11.6799 10.9756 11.3277 11.3277C10.9756 11.6799 10.4981 11.878 10 11.8785Z"/>
	</symbol>
	<symbol id="geo" viewBox="0 0 20 20">
		<path d="M10 1.17188C12.0369 1.1727 14.0109 1.87768 15.5875 3.16738C17.1642 4.45707 18.2464 6.25217 18.651 8.24851C19.0555 10.2449 18.7575 12.3197 17.8074 14.1214C16.8572 15.9232 15.3134 17.341 13.4375 18.1348C11.28 19.0464 8.84875 19.0637 6.67853 18.1828C4.50831 17.3019 2.77692 15.595 1.86523 13.4375C0.953553 11.28 0.936264 8.84875 1.81717 6.67853C2.69808 4.50831 4.40503 2.77692 6.5625 1.86523C7.64997 1.40504 8.81917 1.16921 10 1.17188ZM10 0C4.47734 0 0 4.47734 0 10C0 15.5227 4.47734 20 10 20C15.5227 20 20 15.5227 20 10C20 4.47734 15.5227 0 10 0Z"/>
		<path d="M10 4.53125C8.84683 4.53125 7.74088 4.98935 6.92547 5.80476C6.11005 6.62018 5.65195 7.72612 5.65195 8.8793C5.65195 10.4449 7.49961 13.1621 8.78594 14.8648C8.92801 15.0523 9.11155 15.2043 9.32218 15.3089C9.53281 15.4135 9.76481 15.468 10 15.468C10.2352 15.468 10.4672 15.4135 10.6778 15.3089C10.8884 15.2043 11.072 15.0523 11.2141 14.8648C12.5 13.1641 14.348 10.4449 14.348 8.8793C14.348 7.72612 13.89 6.62018 13.0745 5.80476C12.2591 4.98935 11.1532 4.53125 10 4.53125ZM10 10.1086C9.69429 10.1086 9.39544 10.0179 9.14125 9.8481C8.88706 9.67825 8.68895 9.43685 8.57196 9.15441C8.45497 8.87197 8.42436 8.56118 8.484 8.26134C8.54364 7.9615 8.69085 7.68608 8.90702 7.46991C9.12319 7.25374 9.39861 7.10653 9.69845 7.04689C9.99829 6.98725 10.3091 7.01786 10.5915 7.13485C10.874 7.25184 11.1154 7.44995 11.2852 7.70414C11.455 7.95833 11.5457 8.25718 11.5457 8.56289C11.5456 8.97281 11.3827 9.3659 11.0929 9.65575C10.803 9.94561 10.4099 10.1085 10 10.1086Z"/>
	</symbol>
</svg>
